<?xml version="1.0" encoding="utf-8"?>
<!-- Generator: Adobe Illustrator 23.0.4, SVG Export Plug-In . SVG Version: 6.00 Build 0)  -->
<svg version="1.1" id="レイヤー_1" xmlns="http://www.w3.org/2000/svg" xmlns:xlink="http://www.w3.org/1999/xlink" x="0px"
	 y="0px" viewBox="0 0 251.2 37.4" style="enable-background:new 0 0 251.2 37.4;" xml:space="preserve">
<style type="text/css">
	.st0{enable-background:new    ;}
</style>
<title>logo</title>
<g class="st0">
	<path d="M16,13.4c0,1.6-0.6,3-1.8,4.2c-1.2,1.2-2.6,1.8-4.2,1.8H4v9H1V7.5h9c1.7,0,3.1,0.6,4.2,1.7C15.4,10.4,16,11.8,16,13.4z
		 M13,13.4c0-0.8-0.3-1.5-0.9-2.1c-0.6-0.6-1.3-0.9-2.1-0.9H4v6h6c0.8,0,1.5-0.3,2.1-0.9C12.7,15,13,14.3,13,13.4z"/>
	<path d="M30.9,28.4h-9v-3h3v-9h-3v-3h6v12h3V28.4z M27.9,9c0,0.4-0.1,0.8-0.4,1.1c-0.3,0.3-0.6,0.4-1.1,0.4s-0.8-0.1-1.1-0.4
		c-0.3-0.3-0.4-0.6-0.4-1.1c0-0.4,0.1-0.8,0.4-1.1c0.3-0.3,0.6-0.4,1.1-0.4s0.8,0.1,1.1,0.4C27.8,8.2,27.9,8.5,27.9,9z"/>
	<path d="M51.8,28.4h-15v-2.1l9.9-9.9h-9.9v-3h15v2.1l-9.9,9.9h9.9V28.4z"/>
	<path d="M69.8,28.4h-15v-2.1l9.9-9.9h-9.9v-3h15v2.1l-9.9,9.9h9.9V28.4z"/>
	<path d="M87.7,13.4v15h-3v-4.1l-1.9,1.9c-1.5,1.5-2.9,2.2-4.1,2.2c-1.7,0-3.1-0.6-4.2-1.7s-1.7-2.6-1.7-4.2v-3
		c0-1.7,0.6-3.1,1.7-4.2s2.6-1.7,4.2-1.7H87.7z M78.7,16.4c-0.8,0-1.5,0.3-2.1,0.9c-0.6,0.6-0.9,1.3-0.9,2.1v3
		c0,0.8,0.3,1.5,0.9,2.1c0.6,0.6,1.3,0.9,2.1,0.9c1,0,2-0.5,3-1.5l3-3v-4.5H78.7z"/>
	<path d="M123.6,13.4v15h-3v-4.1l-1.9,1.9c-1.5,1.5-2.9,2.2-4.1,2.2c-1.7,0-3.1-0.6-4.2-1.7s-1.7-2.6-1.7-4.2v-3
		c0-1.7,0.6-3.1,1.7-4.2s2.6-1.7,4.2-1.7H123.6z M114.6,16.4c-0.8,0-1.5,0.3-2.1,0.9c-0.6,0.6-0.9,1.3-0.9,2.1v3
		c0,0.8,0.3,1.5,0.9,2.1c0.6,0.6,1.3,0.9,2.1,0.9c1,0,2-0.5,3-1.5l3-3v-4.5H114.6z"/>
	<path d="M129.6,13.4v4.1l1.9-1.9c1.5-1.5,2.9-2.2,4.1-2.2c1.7,0,3.1,0.6,4.2,1.7s1.7,2.6,1.7,4.2v9h-3v-9c0-0.8-0.3-1.5-0.9-2.1
		s-1.3-0.9-2.1-0.9c-1,0-2,0.5-3,1.5l-3,3v7.5h-3v-15H129.6z"/>
	<path d="M159.5,28.4h-9c-1.6,0-3-0.6-4.2-1.8c-1.2-1.2-1.8-2.6-1.8-4.2v-3c0-1.6,0.6-3,1.8-4.2c1.2-1.2,2.6-1.8,4.2-1.8h6v-6h3
		V28.4z M156.5,25.4v-9h-6c-0.8,0-1.5,0.3-2.1,0.9s-0.9,1.3-0.9,2.1v3c0,0.8,0.3,1.5,0.9,2.1s1.3,0.9,2.1,0.9H156.5z"/>
	<path d="M195.4,22.4c0,1.6-0.6,3-1.8,4.2c-1.2,1.2-2.6,1.8-4.2,1.8h-3c-1.6,0-3-0.6-4.2-1.8c-1.2-1.2-1.8-2.6-1.8-4.2v-9
		c0-1.6,0.6-3,1.8-4.2c1.2-1.2,2.6-1.8,4.2-1.8h3c1.6,0,3,0.6,4.2,1.8c1.2,1.2,1.8,2.6,1.8,4.2h-3c0-0.8-0.3-1.5-0.9-2.1
		s-1.3-0.9-2.1-0.9h-3c-0.8,0-1.5,0.3-2.1,0.9s-0.9,1.3-0.9,2.1v9c0,0.8,0.3,1.5,0.9,2.1s1.3,0.9,2.1,0.9h3c0.8,0,1.5-0.3,2.1-0.9
		s0.9-1.3,0.9-2.1H195.4z"/>
	<path d="M213.3,22.4c0,1.6-0.6,3-1.8,4.2c-1.2,1.2-2.6,1.8-4.2,1.8h-3c-1.6,0-3-0.6-4.2-1.8c-1.2-1.2-1.8-2.6-1.8-4.2v-3
		c0-1.6,0.6-3,1.8-4.2c1.2-1.2,2.6-1.8,4.2-1.8h3c1.6,0,3,0.6,4.2,1.8s1.8,2.6,1.8,4.2V22.4z M210.3,22.4v-3c0-0.8-0.3-1.5-0.9-2.1
		s-1.3-0.9-2.1-0.9h-3c-0.8,0-1.5,0.3-2.1,0.9s-0.9,1.3-0.9,2.1v3c0,0.8,0.3,1.5,0.9,2.1s1.3,0.9,2.1,0.9h3c0.8,0,1.5-0.3,2.1-0.9
		S210.3,23.2,210.3,22.4z"/>
	<path d="M231.2,28.4h-9c-1.6,0-3-0.6-4.2-1.8c-1.2-1.2-1.8-2.6-1.8-4.2v-3c0-1.6,0.6-3,1.8-4.2c1.2-1.2,2.6-1.8,4.2-1.8h6v-6h3
		V28.4z M228.2,25.4v-9h-6c-0.8,0-1.5,0.3-2.1,0.9s-0.9,1.3-0.9,2.1v3c0,0.8,0.3,1.5,0.9,2.1s1.3,0.9,2.1,0.9H228.2z"/>
	<path d="M249.2,28.4h-9c-1.6,0-3-0.6-4.2-1.8c-1.2-1.2-1.8-2.6-1.8-4.2v-3c0-1.6,0.6-3,1.8-4.2c1.2-1.2,2.6-1.8,4.2-1.8h3
		c1.6,0,3,0.6,4.2,1.8s1.8,2.6,1.8,4.2v3h-12c0,0.8,0.3,1.5,0.9,2.1s1.3,0.9,2.1,0.9h9V28.4z M246.2,19.4c0-0.8-0.3-1.5-0.9-2.1
		s-1.3-0.9-2.1-0.9h-3c-0.8,0-1.5,0.3-2.1,0.9s-0.9,1.3-0.9,2.1H246.2z"/>
</g>
</svg>
